<svg width="262" height="85" viewBox="0 0 262 85" fill="none" xmlns="http://www.w3.org/2000/svg">
<g clip-path="url(#clip0)">
<path d="M46.548 6.34998H32.11V11.473H46.548V6.34998Z" fill="#FE0000"/>
<path d="M37.233 6.34998H32.11V75.429H37.233V6.34998Z" fill="#FE0000"/>
<path d="M46.548 70.306H32.11V75.429H46.548V70.306Z" fill="#FE0000"/>
<path d="M48.93 1.91699V82.864L78.916 76.201V8.62799L48.93 1.91699ZM59.892 44.29C59.334 44.398 58.78 44.334 58.228 44.233C57.585 44.116 56.951 43.945 56.291 43.931C56.021 43.925 55.855 43.958 55.752 44.283C55.546 44.938 54.985 45.279 54.39 45.21C53.819 45.144 53.336 44.646 53.268 44.054C53.198 43.446 53.541 42.945 54.207 42.7C54.93 42.434 55.648 42.543 56.362 42.745C56.973 42.918 57.58 43.106 58.194 43.265C59.171 43.518 60.023 43.298 60.717 42.544C60.756 42.502 60.802 42.465 60.849 42.433C60.88 42.412 60.919 42.405 60.955 42.392C61.441 43.263 60.986 44.079 59.892 44.29Z" fill="#FE0000"/>
<path d="M18.639 10.296C13.316 10.296 9 14.611 9 19.935C9 25.259 13.316 29.574 18.639 29.574C23.962 29.574 28.278 25.258 28.278 19.935C28.278 14.612 23.963 10.296 18.639 10.296ZM18.639 22.864C17.021 22.864 15.71 21.553 15.71 19.935C15.71 18.317 17.021 17.006 18.639 17.006C20.257 17.006 21.568 18.317 21.568 19.935C21.568 21.553 20.257 22.864 18.639 22.864Z" fill="#C69C6D"/>
<path d="M14.079 31.873H23.274V66.204L19.121 70.356L14.45 65.685V59.531L16.23 58.715V54.414L15.043 53.747V48.705L14.005 48.037V44.775H15.785V41.067H14.005V37.731H15.636V34.246H14.079V31.873Z" fill="#C69C6D"/>
<path d="M103.167 70.118H86.194V62.396H88.629V45.586H86.148V37.864H103.168V45.586H101.104V50.501H108.571V45.586H106.484V37.864H123.481V45.586H121.046V62.397H123.481V70.119H106.484V62.397H108.571V57.11H101.104V62.397H103.168V70.118H103.167Z" fill="#C69C6D"/>
<path d="M127.979 53.91C127.979 51.22 128.636 48.615 129.95 46.096C131.249 43.592 133.266 41.481 136.003 39.765C136.977 39.162 137.978 38.683 139.005 38.327C140.033 37.972 141.151 37.697 142.357 37.504C143.562 37.311 144.83 37.214 146.16 37.214C151.941 37.214 156.416 38.907 159.586 42.292C161.162 43.961 162.353 45.771 163.156 47.718C163.959 49.665 164.362 51.73 164.362 53.909C164.362 58.407 162.723 62.318 159.446 65.641C156.169 68.965 151.74 70.626 146.16 70.626C140.764 70.626 136.389 69.065 133.035 65.942C129.663 62.837 127.979 58.825 127.979 53.91ZM141.984 53.91C141.984 57.496 142.332 59.915 143.027 61.168C143.692 62.436 144.735 63.069 146.158 63.069C147.564 63.069 148.616 62.459 149.311 61.237C150.006 60.001 150.354 57.558 150.354 53.91C150.354 50.37 150.014 47.959 149.334 46.676C148.669 45.408 147.609 44.774 146.157 44.774C144.765 44.774 143.721 45.385 143.026 46.606C142.332 47.827 141.984 50.262 141.984 53.91Z" fill="#C69C6D"/>
<path d="M181.265 70.118H168.766V62.396H171.247V45.586H168.696V37.864H188.151L192.904 50.316L197.774 37.864H217.112V45.586H214.585V62.397H217.183V70.119H200.348V62.397H202.922V44.379L193.183 70.118H188.36L178.714 44.611V62.396H181.265V70.118Z" fill="#C69C6D"/>
<path d="M252.058 70.118H221.287V62.396H223.792V45.586H221.241V37.864H252.057V48.183H243.593V45.586H236.266V50.548H242.643V57.11H236.266V62.397H243.593V59.8H252.057V70.118H252.058Z" fill="#C69C6D"/>
<path d="M251.832 21.373H84.401V34.888H251.832V21.373Z" fill="#FE0000"/>
<path d="M93.022 29.734H90.197L89.66 31.345H87.946L90.858 23.525H92.35L95.278 31.345H93.565L93.022 29.734ZM90.632 28.429H92.587L91.605 25.501L90.632 28.429Z" fill="white"/>
<path d="M101.49 24.83H97.982V31.346H96.371V23.526H101.49V24.83Z" fill="white"/>
<path d="M107.546 27.957H104.452V30.051H108.083V31.346H102.841V23.526H108.072V24.831H104.452V26.695H107.546V27.957V27.957Z" fill="white"/>
<path d="M115.745 31.345H114.134V27.993H110.992V31.345H109.381V23.525H110.992V26.694H114.134V23.525H115.745V31.345Z" fill="white"/>
<path d="M123.645 28.74C123.583 29.582 123.273 30.244 122.712 30.728C122.151 31.21 121.413 31.453 120.496 31.453C119.494 31.453 118.705 31.115 118.131 30.44C117.556 29.765 117.269 28.838 117.269 27.661V27.183C117.269 26.431 117.402 25.768 117.666 25.195C117.931 24.623 118.31 24.183 118.802 23.877C119.294 23.571 119.866 23.418 120.518 23.418C121.42 23.418 122.148 23.66 122.7 24.143C123.251 24.627 123.569 25.305 123.655 26.179H122.044C122.005 25.674 121.864 25.308 121.623 25.08C121.381 24.852 121.013 24.739 120.519 24.739C119.982 24.739 119.581 24.931 119.314 25.316C119.047 25.701 118.91 26.298 118.903 27.107V27.699C118.903 28.544 119.031 29.161 119.287 29.552C119.543 29.943 119.947 30.137 120.498 30.137C120.996 30.137 121.368 30.024 121.613 29.796C121.858 29.568 121.999 29.217 122.035 28.74H123.645V28.74Z" fill="white"/>
<path d="M130.758 24.83H128.362V31.346H126.751V24.83H124.388V23.525H130.758V24.83Z" fill="white"/>
<path d="M132.028 31.345V23.525H134.767C135.716 23.525 136.436 23.707 136.926 24.07C137.416 24.433 137.661 24.966 137.661 25.668C137.661 26.052 137.563 26.389 137.366 26.681C137.169 26.973 136.895 27.187 136.544 27.323C136.945 27.424 137.262 27.626 137.492 27.93C137.723 28.235 137.839 28.607 137.839 29.047C137.839 29.799 137.599 30.368 137.119 30.755C136.639 31.142 135.955 31.339 135.067 31.346H132.028V31.345ZM133.64 26.801H134.832C135.645 26.786 136.051 26.462 136.051 25.829C136.051 25.474 135.948 25.219 135.742 25.063C135.536 24.907 135.212 24.829 134.767 24.829H133.639V26.801H133.64ZM133.64 27.94V30.05H135.02C135.4 30.05 135.697 29.96 135.91 29.779C136.123 29.598 136.229 29.348 136.229 29.03C136.229 28.313 135.858 27.95 135.118 27.939H133.64V27.94Z" fill="white"/>
<path d="M145.824 27.613C145.824 28.383 145.688 29.057 145.416 29.637C145.144 30.217 144.755 30.664 144.248 30.98C143.741 31.296 143.16 31.453 142.505 31.453C141.857 31.453 141.278 31.297 140.771 30.986C140.262 30.673 139.869 30.229 139.589 29.651C139.309 29.073 139.168 28.408 139.164 27.656V27.269C139.164 26.498 139.303 25.821 139.58 25.236C139.857 24.65 140.25 24.201 140.757 23.887C141.264 23.573 141.843 23.417 142.494 23.417C143.145 23.417 143.724 23.573 144.231 23.887C144.738 24.201 145.13 24.65 145.408 25.236C145.685 25.821 145.824 26.497 145.824 27.263V27.613V27.613ZM144.191 27.257C144.191 26.438 144.045 25.815 143.751 25.388C143.457 24.962 143.038 24.749 142.494 24.749C141.953 24.749 141.536 24.959 141.243 25.38C140.949 25.801 140.801 26.418 140.797 27.231V27.613C140.797 28.411 140.943 29.031 141.237 29.47C141.531 29.911 141.953 30.131 142.505 30.131C143.046 30.131 143.461 29.919 143.751 29.494C144.041 29.07 144.188 28.451 144.191 27.639V27.257Z" fill="white"/>
<path d="M156.803 31.345H155.192V27.993H152.05V31.345H150.439V23.525H152.05V26.694H155.192V23.525H156.803V31.345Z" fill="white"/>
<path d="M163.268 27.957H160.174V30.051H163.805V31.346H158.563V23.526H163.794V24.831H160.174V26.695H163.268V27.957Z" fill="white"/>
<path d="M172.353 33.268H170.865V31.345H166.15V33.263H164.625L164.539 30.05H165.129C165.448 29.785 165.694 29.396 165.868 28.882C166.042 28.368 166.159 27.732 166.22 26.973L166.446 23.525H171.57V30.05H172.483L172.353 33.268ZM166.976 30.05H169.957V24.83H167.976L167.841 26.888C167.733 28.266 167.445 29.32 166.976 30.05Z" fill="white"/>
<path d="M173.677 31.345V23.525H176.416C177.365 23.525 178.085 23.707 178.575 24.07C179.065 24.433 179.31 24.966 179.31 25.668C179.31 26.052 179.212 26.389 179.015 26.681C178.818 26.973 178.544 27.187 178.193 27.323C178.594 27.424 178.911 27.626 179.141 27.93C179.372 28.235 179.488 28.607 179.488 29.047C179.488 29.799 179.248 30.368 178.768 30.755C178.288 31.142 177.604 31.339 176.716 31.346H173.677V31.345ZM175.288 26.801H176.48C177.293 26.786 177.699 26.462 177.699 25.829C177.699 25.474 177.596 25.219 177.39 25.063C177.184 24.907 176.86 24.829 176.415 24.829H175.287V26.801H175.288ZM175.288 27.94V30.05H176.668C177.048 30.05 177.345 29.96 177.558 29.779C177.771 29.598 177.877 29.348 177.877 29.03C177.877 28.313 177.506 27.95 176.766 27.939H175.288V27.94Z" fill="white"/>
<path d="M185.737 23.525H187.354V31.345H185.737V26.152L182.606 31.345H180.995V23.525H182.606V28.73L185.737 23.525Z" fill="white"/>
<path d="M195.726 28.16H194.797V31.346H193.186V28.16H192.235L190.532 31.346H188.524L190.962 27.151L188.642 23.526H190.646L192.386 26.678H193.187V23.526H194.798V26.678H195.581L197.278 23.526H199.276L196.999 27.146L199.4 31.346H197.385L195.726 28.16Z" fill="white"/>
<path d="M205.144 23.525H206.761V31.345H205.144V26.152L202.013 31.345H200.402V23.525H202.013V28.73L205.144 23.525Z" fill="white"/>
<path d="M210.615 23.525L212.624 29.197L214.622 23.525H216.738V31.345H215.122V29.207L215.282 25.517L213.172 31.345H212.066L209.961 25.523L210.122 29.208V31.346H208.511V23.526H210.615V23.525Z" fill="white"/>
<path d="M224.921 27.613C224.921 28.383 224.785 29.057 224.513 29.637C224.241 30.217 223.852 30.664 223.345 30.98C222.838 31.296 222.257 31.453 221.602 31.453C220.954 31.453 220.375 31.297 219.868 30.986C219.359 30.673 218.966 30.229 218.686 29.651C218.406 29.073 218.265 28.408 218.261 27.656V27.269C218.261 26.498 218.4 25.821 218.677 25.236C218.954 24.65 219.347 24.201 219.854 23.887C220.361 23.573 220.94 23.417 221.591 23.417C222.242 23.417 222.821 23.573 223.328 23.887C223.835 24.201 224.227 24.65 224.505 25.236C224.782 25.821 224.921 26.497 224.921 27.263V27.613V27.613ZM223.288 27.257C223.288 26.438 223.142 25.815 222.848 25.388C222.554 24.962 222.135 24.749 221.591 24.749C221.05 24.749 220.633 24.959 220.34 25.38C220.046 25.801 219.898 26.418 219.894 27.231V27.613C219.894 28.411 220.04 29.031 220.334 29.47C220.628 29.911 221.05 30.131 221.602 30.131C222.143 30.131 222.558 29.919 222.848 29.494C223.138 29.07 223.285 28.451 223.288 27.639V27.257Z" fill="white"/>
<path d="M232.584 28.74C232.522 29.582 232.212 30.244 231.651 30.728C231.09 31.21 230.352 31.453 229.435 31.453C228.433 31.453 227.644 31.115 227.07 30.44C226.495 29.765 226.208 28.838 226.208 27.661V27.183C226.208 26.431 226.341 25.768 226.605 25.195C226.87 24.623 227.249 24.183 227.741 23.877C228.233 23.571 228.805 23.418 229.457 23.418C230.359 23.418 231.087 23.66 231.639 24.143C232.19 24.627 232.508 25.305 232.594 26.179H230.983C230.944 25.674 230.803 25.308 230.562 25.08C230.32 24.852 229.952 24.739 229.458 24.739C228.921 24.739 228.52 24.931 228.253 25.316C227.986 25.701 227.849 26.298 227.842 27.107V27.699C227.842 28.544 227.97 29.161 228.226 29.552C228.482 29.943 228.886 30.137 229.437 30.137C229.935 30.137 230.307 30.024 230.552 29.796C230.797 29.568 230.938 29.217 230.974 28.74H232.584V28.74Z" fill="white"/>
<path d="M239.697 24.83H237.301V31.346H235.69V24.83H233.327V23.525H239.697V24.83V24.83Z" fill="white"/>
<path d="M245.656 23.525H247.273V31.345H245.656V26.152L242.525 31.345H240.914V23.525H242.525V28.73L245.656 23.525Z" fill="white"/>
</g>
<defs>
<clipPath id="clip0">
<rect width="262" height="85" fill="white"/>
</clipPath>
</defs>
</svg>
