<?xml version="1.0" encoding="utf-8"?>
<!-- Generator: Adobe Illustrator 21.0.0, SVG Export Plug-In . SVG Version: 6.00 Build 0)  -->
<svg version="1.1" id="Слой_1" xmlns="http://www.w3.org/2000/svg" xmlns:xlink="http://www.w3.org/1999/xlink" x="0px" y="0px"
	 viewBox="0 0 113 100" style="enable-background:new 0 0 113 100;" xml:space="preserve">
<style type="text/css">
	.st0{fill:#C69C6D;}
	.st1{fill:#FE0000;}
</style>
<g>
	<g>
		<path class="st0" d="M118.9-137.4c-0.9,0-1.6-0.4-2.3-0.9c-5.8-4.4-11.7-8.9-17.5-13.3c-10.2-7.8-20.5-15.6-30.7-23.3
			c-1.4-1.1-2.4-1-3.8,0c-15.2,11.5-30.3,23.1-45.5,34.6c-0.9,0.7-1.9,1.4-2.8,2.1c-1.7,1.3-3.9,1-5.2-0.6c-1.3-1.6-0.9-3.9,0.8-5.2
			c7-5.3,14-10.7,21-16c9.6-7.3,19.3-14.7,28.9-22c2.9-2.2,6.2-2.2,9.1,0c16.6,12.7,33.3,25.3,49.9,38c1.2,0.9,1.8,2.1,1.5,3.7
			c-0.3,1.4-1.2,2.4-2.6,2.8C119.5-137.5,119.2-137.5,118.9-137.4z"/>
		<path class="st0" d="M106.9-160.1c-1.9-1.4-3.7-2.8-5.5-4.2c-3.4-2.6-6.7-5.1-10.1-7.7c-0.4-0.3-0.5-0.6-0.5-1
			c0.1-0.6,0-1.2,0.1-1.8c0.4-1.9,2-3.3,3.9-3.3c2.7,0,5.4,0,8.1,0c2.2,0,4,1.8,4,4c0.1,4.6,0,9.1,0,13.7
			C106.9-160.4,106.9-160.3,106.9-160.1z"/>
	</g>
	<g>
		<path class="st0" d="M56-140.4c0,2.5,1.7,4.8,5.2,6.9v-12.3C57.7-145.1,56-143.3,56-140.4z"/>
		<path class="st0" d="M105.7-137c-12.5-9.5-25.1-19.1-37.6-28.6c-0.9-0.7-1.6-0.9-2.3-0.8c-0.7-0.1-1.4,0.1-2.3,0.8
			c-12.5,9.5-25,19.1-37.6,28.6c-1,0.7-1.4,1.6-1.4,2.8c0,11.3,0,22.7,0,34c0,6.2,4.7,10.8,10.9,10.8c0.2,0,0.3,0,0.5,0c0,0,0,0,0,0
			c0.4,0,0.6,0,0.8,0c8.2,0,16.4,0,24.6,0v-2.2c-4.8-0.6-8.8-2.3-12.1-5.1c-3.2-2.7-5.1-7.4-5.5-13.9h11.4c0,0.3,0,0.6,0,0.7
			c0,2.1,0.6,4,1.7,5.6c1.1,1.6,2.7,2.7,4.6,3.2v-19.5c-6.5-3-10.9-6-13.2-8.9c-2.3-2.9-3.4-6.1-3.4-9.6c0-4.2,1.5-7.9,4.6-10.9
			c3-3,7-4.7,12-5.1v-2.4h6.5v2.4c5.3,0.4,9.6,2.1,12.7,5.2c3.2,3,4.7,6.9,4.7,11.8H73.8c-0.5-4.8-2.6-7.4-6.1-7.8v15.3l6.3,2.8
			c3.5,1.6,6.3,3.4,8.4,5.5c2.1,2,3.6,4.2,4.4,6.4c0.8,2.2,1.2,4.4,1.2,6.7c0,4.9-1.8,9.1-5.5,12.4c-3.7,3.3-8.6,5.1-14.8,5.2v2.2
			c9.1,0,18.2,0,27.2,0c0.2,0,0.4,0,0.8,0c0,0,0,0,0,0c0.2,0,0.4,0,0.5,0c6.2,0,10.9-4.7,10.9-10.8c0-11.3,0-22.7,0-34
			C107.1-135.4,106.7-136.3,105.7-137z"/>
		<path class="st0" d="M76.7-108.1c0-4-3-7.2-9.1-9.5v17.1c2.6,0,4.8-0.7,6.5-2.2C75.9-104.2,76.7-106,76.7-108.1z"/>
	</g>
</g>
<g>
	<g>
		<path class="st1" d="M108.8,49c-0.9,0-1.6-0.3-2.3-0.9c-5.8-4.4-11.6-8.8-17.5-13.3c-10.2-7.7-20.4-15.5-30.6-23.2
			c-1.4-1.1-2.4-1-3.8,0C39.5,23.1,24.4,34.6,9.3,46c-0.9,0.7-1.8,1.4-2.8,2.1c-1.7,1.3-3.9,1-5.1-0.6c-1.2-1.6-0.9-3.8,0.8-5.1
			c7-5.3,14-10.6,20.9-15.9C32.8,19.2,42.4,11.9,52,4.6c2.9-2.2,6.2-2.2,9.1,0c16.6,12.6,33.1,25.2,49.7,37.8
			c1.2,0.9,1.8,2.1,1.5,3.7c-0.3,1.4-1.2,2.4-2.6,2.8C109.4,48.9,109.1,48.9,108.8,49z"/>
		<path class="st1" d="M96.8,26.4c-1.9-1.4-3.7-2.8-5.5-4.1c-3.4-2.6-6.7-5.1-10.1-7.7c-0.4-0.3-0.5-0.6-0.5-1c0-0.6,0-1.2,0.1-1.8
			c0.4-1.9,2-3.3,3.9-3.3c2.7,0,5.4,0,8.1,0c2.2,0,4,1.8,4,4c0.1,4.5,0,9.1,0,13.6C96.8,26.1,96.8,26.2,96.8,26.4z"/>
	</g>
	<g>
		<path class="st1" d="M54.6,74.8l-0.9,9.7h5.7l-0.7-9.8c0.9-0.7,1.5-1.7,1.5-2.9c0-2-1.6-3.6-3.6-3.6c-2,0-3.6,1.6-3.6,3.6
			C52.9,73.1,53.6,74.2,54.6,74.8z"/>
		<path class="st1" d="M95.9,49.6c-6-4.6-12-9.2-18-13.8v0h0c-6.4-4.9-12.8-9.8-19.1-14.7c-1-0.7-1.7-1-2.5-0.8
			c-0.8-0.2-1.6,0-2.5,0.8c-12.2,9.5-24.5,19-36.7,28.5c-0.9,0.7-1.4,1.6-1.4,2.8c0,11.3,0,22.6,0,33.8c0,6.1,4.6,10.8,10.6,10.8
			c0.2,0,0.4,0,0.7,0c0,0,0,0,0,0c0.4,0,0.6,0,0.8,0c9.5,0,19,0,28.5,0c9.4,0,18.8,0,28.2,0c0.2,0,0.4,0,0.7,0c0,0,0,0,0,0
			c0.4,0,0.9,0,1.3,0c6.1,0,10.7-4.7,10.7-10.8c0-11.3,0-22.6,0-33.8C97.3,51.2,96.9,50.3,95.9,49.6z M56.5,33.5
			c11.7,0,21.1,8.9,21.1,19.8c0,0.2,0,0.4,0,0.6h-7.3c0-0.2,0-0.4,0-0.6c0-7.2-6.2-13-13.9-13c-7.7,0-13.9,5.8-13.9,13
			c0,0.2,0,0.4,0,0.6h-7.3c0-0.2,0-0.4,0-0.6C35.4,42.4,44.8,33.5,56.5,33.5z M83.9,88.8c0,3-2.5,5.5-5.5,5.5H34.6
			c-3,0-5.5-2.5-5.5-5.5v0L83.9,88.8L83.9,88.8z M31.6,81.1V68.2c0-3.5,2.8-6.3,6.3-6.3h37.3c3.5,0,6.3,2.8,6.3,6.3v12.9
			c0,3.5-2.8,6.3-6.3,6.3H37.8C34.4,87.4,31.6,84.6,31.6,81.1z M83.9,60.6H29.1v0c0-3,2.5-5.5,5.5-5.5h43.8
			C81.4,55,83.9,57.5,83.9,60.6L83.9,60.6z"/>
	</g>
</g>
<rect x="-290.3" y="-10" class="st1" width="196.7" height="72"/>
</svg>
