<?xml version="1.0" encoding="utf-8"?>
<!-- Generator: Adobe Illustrator 21.0.0, SVG Export Plug-In . SVG Version: 6.00 Build 0)  -->
<svg version="1.1" id="Слой_1" xmlns="http://www.w3.org/2000/svg" xmlns:xlink="http://www.w3.org/1999/xlink" x="0px" y="0px"
	 viewBox="0 0 113 100" style="enable-background:new 0 0 113 100;" xml:space="preserve">
<style type="text/css">
	.st0{fill:#C69C6D;}
	.st1{fill:#FE0000;}
</style>
<g>
	<g>
		<path class="st0" d="M118.9-137.4c-0.9,0-1.6-0.4-2.3-0.9c-5.8-4.4-11.7-8.9-17.5-13.3c-10.2-7.8-20.5-15.6-30.7-23.3
			c-1.4-1.1-2.4-1-3.8,0c-15.2,11.5-30.3,23.1-45.5,34.6c-0.9,0.7-1.9,1.4-2.8,2.1c-1.7,1.3-3.9,1-5.2-0.6c-1.3-1.6-0.9-3.9,0.8-5.2
			c7-5.3,14-10.7,21-16c9.6-7.3,19.3-14.7,28.9-22c2.9-2.2,6.2-2.2,9.1,0c16.6,12.7,33.3,25.3,49.9,38c1.2,0.9,1.8,2.1,1.5,3.7
			c-0.3,1.4-1.2,2.4-2.6,2.8C119.5-137.5,119.2-137.5,118.9-137.4z"/>
		<path class="st0" d="M106.9-160.1c-1.9-1.4-3.7-2.8-5.5-4.2c-3.4-2.6-6.7-5.1-10.1-7.7c-0.4-0.3-0.5-0.6-0.5-1
			c0.1-0.6,0-1.2,0.1-1.8c0.4-1.9,2-3.3,3.9-3.3c2.7,0,5.4,0,8.1,0c2.2,0,4,1.8,4,4c0.1,4.6,0,9.1,0,13.7
			C106.9-160.4,106.9-160.3,106.9-160.1z"/>
	</g>
	<g>
		<path class="st0" d="M56-140.4c0,2.5,1.7,4.8,5.2,6.9v-12.3C57.7-145.1,56-143.3,56-140.4z"/>
		<path class="st0" d="M105.7-137c-12.5-9.5-25.1-19.1-37.6-28.6c-0.9-0.7-1.6-0.9-2.3-0.8c-0.7-0.1-1.4,0.1-2.3,0.8
			c-12.5,9.5-25,19.1-37.6,28.6c-1,0.7-1.4,1.6-1.4,2.8c0,11.3,0,22.7,0,34c0,6.2,4.7,10.8,10.9,10.8c0.2,0,0.3,0,0.5,0c0,0,0,0,0,0
			c0.4,0,0.6,0,0.8,0c8.2,0,16.4,0,24.6,0v-2.2c-4.8-0.6-8.8-2.3-12.1-5.1c-3.2-2.7-5.1-7.4-5.5-13.9h11.4c0,0.3,0,0.6,0,0.7
			c0,2.1,0.6,4,1.7,5.6c1.1,1.6,2.7,2.7,4.6,3.2v-19.5c-6.5-3-10.9-6-13.2-8.9c-2.3-2.9-3.4-6.1-3.4-9.6c0-4.2,1.5-7.9,4.6-10.9
			c3-3,7-4.7,12-5.1v-2.4h6.5v2.4c5.3,0.4,9.6,2.1,12.7,5.2c3.2,3,4.7,6.9,4.7,11.8H73.8c-0.5-4.8-2.6-7.4-6.1-7.8v15.3l6.3,2.8
			c3.5,1.6,6.3,3.4,8.4,5.5c2.1,2,3.6,4.2,4.4,6.4c0.8,2.2,1.2,4.4,1.2,6.7c0,4.9-1.8,9.1-5.5,12.4c-3.7,3.3-8.6,5.1-14.8,5.2v2.2
			c9.1,0,18.2,0,27.2,0c0.2,0,0.4,0,0.8,0c0,0,0,0,0,0c0.2,0,0.4,0,0.5,0c6.2,0,10.9-4.7,10.9-10.8c0-11.3,0-22.7,0-34
			C107.1-135.4,106.7-136.3,105.7-137z"/>
		<path class="st0" d="M76.7-108.1c0-4-3-7.2-9.1-9.5v17.1c2.6,0,4.8-0.7,6.5-2.2C75.9-104.2,76.7-106,76.7-108.1z"/>
	</g>
</g>
<g>
	<g>
		<path class="st1" d="M250.7-32.1c-0.9,0-1.6-0.3-2.3-0.9c-5.8-4.4-11.6-8.8-17.5-13.3c-10.2-7.7-20.4-15.5-30.6-23.2
			c-1.4-1.1-2.4-1-3.8,0C181.5-58,166.4-46.5,151.3-35c-0.9,0.7-1.8,1.4-2.8,2.1c-1.7,1.3-3.9,1-5.1-0.6c-1.2-1.6-0.9-3.8,0.8-5.1
			c7-5.3,14-10.6,20.9-15.9c9.6-7.3,19.2-14.6,28.8-21.9c2.9-2.2,6.2-2.2,9.1,0c16.6,12.6,33.1,25.2,49.7,37.8
			c1.2,0.9,1.8,2.1,1.5,3.7c-0.3,1.4-1.2,2.4-2.6,2.8C251.4-32.2,251-32.1,250.7-32.1z"/>
		<path class="st1" d="M238.7-54.7c-1.9-1.4-3.7-2.8-5.5-4.1c-3.4-2.6-6.7-5.1-10.1-7.7c-0.4-0.3-0.5-0.6-0.5-1
			c0.1-0.6,0-1.2,0.1-1.8c0.4-1.9,2-3.3,3.9-3.3c2.7,0,5.4,0,8.1,0c2.2,0,4,1.8,4,4c0.1,4.5,0,9.1,0,13.6
			C238.8-54.9,238.8-54.9,238.7-54.7z"/>
	</g>
	<g>
		<path class="st1" d="M196.6-6.3l-0.9,9.7h5.7l-0.7-9.8c0.9-0.7,1.5-1.7,1.5-2.9c0-2-1.6-3.6-3.6-3.6c-2,0-3.6,1.6-3.6,3.6
			C194.9-8,195.6-6.9,196.6-6.3z"/>
		<path class="st1" d="M237.9-31.5c-6-4.6-12-9.2-18-13.8v0h0c-6.4-4.9-12.8-9.8-19.1-14.7c-1-0.7-1.7-1-2.5-0.8
			c-0.8-0.2-1.6,0-2.5,0.8c-12.2,9.5-24.5,19-36.7,28.5c-0.9,0.7-1.4,1.6-1.4,2.8c0,11.3,0,22.6,0,33.8c0,6.1,4.6,10.8,10.6,10.8
			c0.2,0,0.4,0,0.7,0c0,0,0,0,0,0c0.4,0,0.6,0,0.8,0c9.5,0,19,0,28.5,0c9.4,0,18.8,0,28.2,0c0.2,0,0.4,0,0.7,0c0,0,0,0,0,0
			c0.4,0,0.9,0,1.3,0c6.1,0,10.7-4.7,10.7-10.8c0-11.3,0-22.6,0-33.8C239.3-29.8,238.8-30.8,237.9-31.5z M198.5-47.6
			c11.7,0,21.1,8.9,21.1,19.8c0,0.2,0,0.4,0,0.6h-7.3c0-0.2,0-0.4,0-0.6c0-7.2-6.2-13-13.9-13c-7.7,0-13.9,5.8-13.9,13
			c0,0.2,0,0.4,0,0.6h-7.3c0-0.2,0-0.4,0-0.6C177.3-38.7,186.8-47.6,198.5-47.6z M225.9,7.7c0,3-2.5,5.5-5.5,5.5h-43.8
			c-3,0-5.5-2.5-5.5-5.5v0L225.9,7.7L225.9,7.7z M173.5,0v-12.9c0-3.5,2.8-6.3,6.3-6.3h37.3c3.5,0,6.3,2.8,6.3,6.3V0
			c0,3.5-2.8,6.3-6.3,6.3h-37.3C176.3,6.3,173.5,3.5,173.5,0z M225.9-20.5H171v0c0-3,2.5-5.5,5.5-5.5h43.8
			C223.4-26.1,225.9-23.6,225.9-20.5L225.9-20.5z"/>
	</g>
</g>
<g>
	<g>
		<path class="st1" d="M108.9,48.7c-0.9,0-1.6-0.4-2.3-0.9c-5.8-4.4-11.7-8.9-17.5-13.3C78.9,26.8,68.6,19,58.4,11.2
			c-1.4-1.1-2.4-1-3.8,0c-15.1,11.5-30.3,23-45.4,34.5c-0.9,0.7-1.9,1.4-2.8,2.1c-1.7,1.3-3.9,1-5.2-0.6c-1.3-1.6-0.9-3.8,0.8-5.2
			c7-5.3,14-10.6,21-16c9.6-7.3,19.3-14.6,28.9-22c2.9-2.2,6.2-2.2,9.1,0c16.6,12.6,33.2,25.3,49.9,37.9c1.2,0.9,1.8,2.1,1.5,3.7
			c-0.3,1.4-1.2,2.4-2.6,2.8C109.6,48.6,109.2,48.7,108.9,48.7z"/>
		<path class="st1" d="M96.9,26c-1.9-1.4-3.7-2.8-5.5-4.2c-3.4-2.6-6.7-5.1-10.1-7.7c-0.4-0.3-0.5-0.6-0.5-1c0.1-0.6,0-1.2,0.1-1.8
			c0.4-1.9,2-3.3,3.9-3.3c2.7,0,5.4,0,8.1,0c2.2,0,4,1.8,4,4c0.1,4.6,0,9.1,0,13.7C97,25.8,96.9,25.9,96.9,26z"/>
	</g>
	<path class="st1" d="M95.6,48.9C83.3,39.5,71,30.1,58.8,20.7c-0.9-0.7-1.6-0.9-2.4-0.8c-0.7-0.1-1.5,0.1-2.3,0.8
		c-12.2,9.4-24.4,18.8-36.7,28.1c-0.9,0.7-1.4,1.6-1.4,2.8c0,11.2,0,22.3,0,33.5c0,6,4.5,10.6,10.5,10.7l7.2-31.1
		c0,0,1.1-5.6,20.8-8l1.2,2.9l-3.5,29.7l4,6.5c0.4,0,0.7,0,1.1,0l3.7-6.3l-3.6-29.9l1.4-2.8c0,0,16,0.9,20.9,7.7l6.8,31.3
		c6-0.1,10.5-4.7,10.5-10.7c0-11.2,0-22.3,0-33.5C97,50.5,96.5,49.6,95.6,48.9z M56.5,54.3c-6.7,0-12.1-6.4-12.1-14.3
		s5.4-14.3,12.1-14.3S68.6,32.1,68.6,40S63.2,54.3,56.5,54.3z"/>
</g>
</svg>
