<?xml version="1.0" encoding="utf-8"?>
<!-- Generator: Adobe Illustrator 21.0.0, SVG Export Plug-In . SVG Version: 6.00 Build 0)  -->
<svg version="1.1" id="Слой_1" xmlns="http://www.w3.org/2000/svg" xmlns:xlink="http://www.w3.org/1999/xlink" x="0px" y="0px"
	 viewBox="0 0 113 100" style="enable-background:new 0 0 113 100;" xml:space="preserve">
<style type="text/css">
	.st0{fill:#FE0000;}
</style>
<g>
	<g>
		<path class="st0" d="M109,49.1c-0.9,0-1.6-0.4-2.3-0.9c-5.8-4.4-11.7-8.9-17.5-13.3C79,27.1,68.7,19.3,58.5,11.6
			c-1.4-1.1-2.4-1-3.8,0c-15.3,11.5-30.4,23-45.6,34.5c-0.9,0.7-1.9,1.4-2.8,2.1c-1.7,1.3-3.9,1-5.2-0.6C-0.1,46,0.3,43.8,2,42.5
			c7-5.3,14-10.7,21-16c9.6-7.3,19.3-14.7,28.9-22c2.9-2.2,6.2-2.2,9.1,0c16.6,12.7,33.3,25.3,49.9,38c1.2,0.9,1.8,2.1,1.5,3.7
			c-0.3,1.4-1.2,2.4-2.6,2.8C109.6,49,109.3,49,109,49.1z"/>
		<path class="st0" d="M96.9,26.4c-1.9-1.4-3.7-2.8-5.5-4.2c-3.4-2.6-6.7-5.1-10.1-7.7c-0.4-0.3-0.5-0.6-0.5-1
			c0.1-0.6,0-1.2,0.1-1.8c0.4-1.9,2-3.3,3.9-3.3c2.7,0,5.4,0,8.1,0c2.2,0,4,1.8,4,4c0.1,4.6,0,9.1,0,13.7C97,26.1,97,26.2,96.9,26.4
			z"/>
	</g>
	<g>
		<path class="st0" d="M46.1,46.1c0,2.5,1.7,4.8,5.2,6.9V40.7C47.8,41.4,46.1,43.2,46.1,46.1z"/>
		<path class="st0" d="M95.8,49.5C83.3,40,70.7,30.4,58.2,20.9c-0.9-0.7-1.6-0.9-2.3-0.8c-0.7-0.1-1.4,0.1-2.3,0.8
			C41,30.4,28.5,40,16,49.5c-1,0.7-1.4,1.6-1.4,2.8c0,11.3,0,22.7,0,34c0,6.2,4.7,10.8,10.9,10.8c0.2,0,0.3,0,0.5,0l0,0
			c0.4,0,0.6,0,0.8,0c8.2,0,16.4,0,24.6,0V95c-4.8-0.6-8.8-2.3-12.1-5.1c-3.2-2.7-5.1-7.4-5.5-13.9H45c0,0.3,0,0.6,0,0.7
			c0,2.1,0.6,4,1.7,5.6c1.1,1.6,2.7,2.7,4.6,3.2V66.1c-6.5-3-10.9-6-13.2-8.9c-2.3-2.9-3.4-6.1-3.4-9.6c0-4.2,1.5-7.9,4.6-10.9
			c3-3,7-4.7,12-5.1v-2.4h6.5v2.4c5.3,0.4,9.6,2.1,12.7,5.2c3.2,3,4.7,6.9,4.7,11.8H63.9c-0.5-4.8-2.6-7.4-6.1-7.8V56l6.3,2.8
			c3.5,1.6,6.3,3.4,8.4,5.5c2.1,2,3.6,4.2,4.4,6.4c0.8,2.2,1.2,4.4,1.2,6.7c0,4.9-1.8,9.1-5.5,12.4S64,94.9,57.8,95v2.2
			c9.1,0,18.2,0,27.2,0c0.2,0,0.4,0,0.8,0l0,0c0.2,0,0.4,0,0.5,0c6.2,0,10.9-4.7,10.9-10.8c0-11.3,0-22.7,0-34
			C97.2,51.1,96.7,50.2,95.8,49.5z"/>
		<path class="st0" d="M66.8,78.4c0-4-3-7.2-9.1-9.5V86c2.6,0,4.8-0.7,6.5-2.2C66,82.3,66.8,80.5,66.8,78.4z"/>
	</g>
</g>
<rect x="-249.3" y="-116" class="st0" width="196.7" height="72"/>
</svg>
