<?xml version="1.0" encoding="utf-8"?>
<!-- Generator: Adobe Illustrator 21.0.0, SVG Export Plug-In . SVG Version: 6.00 Build 0)  -->
<svg version="1.1" id="Слой_1" xmlns="http://www.w3.org/2000/svg" xmlns:xlink="http://www.w3.org/1999/xlink" x="0px" y="0px"
	 viewBox="0 0 17 17" style="enable-background:new 0 0 17 17;" xml:space="preserve">
<style type="text/css">
	.st0{fill:#2765AF;}
</style>
<g>
	<path class="st0" d="M15.9,11.5c0,0-0.8-0.7-1.3-1c-0.4-0.3-1-0.7-1.4-0.9c-0.6-0.4-1.3-0.1-1.5,0.2l-0.5,0.7
		c-0.3,0.4-0.7,0.3-0.8,0.3C9.6,10.6,8.7,10,7.9,9.2C7,8.3,6.4,7.5,6.3,6.5l0-0.1c-0.1-0.4,0-0.6,0.2-0.8l0,0c0.4-0.3,1-0.8,1.1-1.2
		c0.3-0.7-0.9-2.1-1.1-2.4c0,0-0.8-1.1-1.1-1.3C5,0.5,4.5,0.3,4,0.7l0,0c-1.5,1-2,1.6-1.8,2.4l0.1,0.3c0.7,2.3,2.2,4.8,4.3,7
		c2.1,2.2,4.4,3.5,6.6,4.4c0.6,0.2,1.2,0,1.8-0.5l0,0c0.5-0.4,0.9-0.9,1.1-1.4l0,0C16.4,12.3,16.3,11.8,15.9,11.5"/>
	<path class="st0" d="M8.9,16.6c-0.1,0-0.1,0-0.2,0c-1.5,0-2.9-0.3-4.2-1.1c-1.8-1-3-2.5-3.7-4.4C0.1,9.1,0.2,7,1.2,5c0,0,0,0,0-0.1
		c0.1,0.2,0.1,0.4,0.2,0.6C1.5,5.7,1.6,6,1.7,6.2c0,0,0,0.1,0,0.1C1.3,7.4,1.3,8.6,1.5,9.7c0.4,2.1,1.5,3.6,3.2,4.8
		c1,0.7,2.1,1,3.4,1.1c0.8,0.1,1.6,0,2.4-0.3c0,0,0.1,0,0.1,0c0.4,0.2,0.8,0.4,1.3,0.5c-0.1,0.1-0.2,0.1-0.4,0.2
		c-0.5,0.2-1,0.3-1.5,0.4c0,0,0,0-0.1,0C9.6,16.6,9.2,16.6,8.9,16.6z"/>
	<path class="st0" d="M16.6,7.9C16.6,7.9,16.6,8,16.6,7.9c0,1,0,1.9-0.3,2.7c0,0,0,0,0,0c0,0,0,0-0.1,0c-0.2-0.3-0.4-0.5-0.7-0.7
		c-0.1,0-0.1-0.1-0.1-0.2c0.2-0.9,0.2-1.7,0-2.6c-0.3-1.5-1-2.8-2.1-3.9c-1.2-1.2-2.7-1.8-4.3-1.9c-0.5,0-1,0-1.5,0
		c-0.1,0-0.1,0-0.1-0.1C7.2,1.1,7.1,0.9,6.9,0.6c0,0,0-0.1,0-0.1c1.4-0.3,2.7-0.2,4.1,0.2c2.6,0.9,4.3,2.6,5.3,5.2
		c0.2,0.6,0.3,1.2,0.4,1.8C16.6,7.8,16.6,7.8,16.6,7.9C16.6,7.9,16.6,7.9,16.6,7.9z"/>
</g>
</svg>
