<?xml version="1.0" encoding="utf-8"?>
<!-- Generator: Adobe Illustrator 21.0.0, SVG Export Plug-In . SVG Version: 6.00 Build 0)  -->
<svg version="1.1" id="Слой_1" xmlns="http://www.w3.org/2000/svg" xmlns:xlink="http://www.w3.org/1999/xlink" x="0px" y="0px"
	 viewBox="0 0 17 17" style="enable-background:new 0 0 17 17;" xml:space="preserve">
<style type="text/css">
	.st0{fill:#834995;}
</style>
<g>
	<path class="st0" d="M14.9,9.5c-0.4,3.4-2.8,3.6-3.3,3.8c-0.2,0.1-2,0.5-4.2,0.4L5,16.3l0-3.1l0,0C1.7,12.3,1.8,8.8,1.8,7
		c0-1.8,0.4-3.3,1.4-4.3C5,1.1,8.6,1.3,8.6,1.3c3.1,0,4.6,1,4.9,1.3C14.7,3.6,15.3,6,14.9,9.5 M14.4,1.8C14,1.4,12.4,0.2,8.7,0.1
		c0,0-4.3-0.3-6.4,1.7C1.1,3,0.7,4.8,0.6,7c0,2.2-0.1,6.3,3.7,7.4l0,0l0,1.7c0,0,0,0.7,0.4,0.8c0.5,0.2,0.8-0.4,1.4-0.9
		c0.3-0.3,0.7-0.8,1-1.1c2.6,0.2,4.6-0.3,4.9-0.4c0.5-0.2,3.5-0.6,4-4.6C16.5,5.6,15.8,3,14.4,1.8"/>
	<path class="st0" d="M12.1,10c0,0-0.5-0.4-0.7-0.6c-0.2-0.2-0.6-0.4-0.8-0.5C10.2,8.7,9.8,8.8,9.7,9L9.3,9.4
		C9.2,9.6,8.9,9.6,8.9,9.6c-0.5-0.1-1-0.4-1.5-0.9c-0.5-0.5-0.8-1-0.9-1.6l0,0c0-0.2,0-0.3,0.1-0.5l0,0c0.2-0.2,0.6-0.4,0.7-0.7
		c0.2-0.4-0.5-1.2-0.6-1.4c0,0-0.5-0.7-0.7-0.8C5.7,3.6,5.5,3.5,5.2,3.7l0,0C4.3,4.3,4,4.6,4.1,5.1l0,0.2c0.4,1.4,1.3,2.8,2.5,4.1
		c1.2,1.3,2.6,2,3.9,2.6c0.3,0.1,0.7,0,1.1-0.3l0,0c0.3-0.3,0.5-0.5,0.7-0.8l0,0C12.4,10.5,12.3,10.2,12.1,10"/>
	<path class="st0" d="M10,7.1C10,7.1,9.9,7,10,7.1C9.9,6.6,9.8,6.3,9.7,6.2C9.5,6,9.2,5.9,8.9,5.9c-0.1,0-0.1-0.1-0.1-0.1
		c0-0.1,0-0.1,0.1-0.1c0.4,0,0.7,0.1,0.9,0.4c0.2,0.2,0.3,0.5,0.3,0.9C10.1,7,10.1,7,10,7.1L10,7.1"/>
	<path class="st0" d="M11,7.4L11,7.4c-0.1,0-0.1,0-0.1-0.1c0-0.7-0.2-1.2-0.6-1.7c-0.2-0.2-0.4-0.4-0.7-0.5C9.3,4.9,9,4.9,8.6,4.8
		c-0.1,0-0.1-0.1-0.1-0.1c0-0.1,0.1-0.1,0.1-0.1C9.4,4.7,10,5,10.5,5.4C10.9,5.9,11.1,6.6,11,7.4C11.1,7.3,11.1,7.4,11,7.4"/>
	<path class="st0" d="M12,7.8C11.9,7.8,11.9,7.7,12,7.8c-0.1-0.7-0.2-1.2-0.4-1.7c-0.2-0.5-0.4-0.9-0.8-1.2
		c-0.3-0.3-0.7-0.6-1.2-0.8C9.3,3.9,8.8,3.8,8.3,3.8c-0.1,0-0.1,0-0.1-0.1c0-0.1,0-0.1,0.1-0.1h0c1.1,0,2,0.4,2.7,1.1
		c0.4,0.4,0.6,0.8,0.8,1.3c0.2,0.5,0.3,1.1,0.3,1.7C12.1,7.7,12,7.8,12,7.8L12,7.8z"/>
</g>
</svg>
