<?xml version="1.0" encoding="iso-8859-1"?>
<!-- Generator: Adobe Illustrator 21.0.0, SVG Export Plug-In . SVG Version: 6.00 Build 0)  -->
<svg version="1.1" id="&#x421;&#x43B;&#x43E;&#x439;_1"
	 xmlns="http://www.w3.org/2000/svg" xmlns:xlink="http://www.w3.org/1999/xlink" x="0px" y="0px" viewBox="0 0 17 17"
	 style="enable-background:new 0 0 17 17;" xml:space="preserve">
<g>
	<g>
		<path style="fill:#2CB642;" d="M14.372,2.607c-1.554-1.556-3.622-2.414-5.824-2.415c-4.538,0-8.232,3.693-8.233,8.233
			c-0.001,1.451,0.379,2.868,1.099,4.116l-1.168,4.266l4.365-1.145c1.202,0.656,2.557,1.002,3.934,1.002h0.003
			c4.538,0,8.231-3.694,8.233-8.233C16.783,6.232,15.927,4.163,14.372,2.607z M8.548,15.274H8.546
			c-1.228-0.001-2.432-0.33-3.483-0.954l-0.25-0.148l-2.59,0.679l0.691-2.525l-0.163-0.259c-0.685-1.09-1.047-2.349-1.046-3.642
			c0.001-3.773,3.071-6.843,6.846-6.843c1.828,0.001,3.546,0.713,4.838,2.007c1.292,1.293,2.003,3.013,2.002,4.841
			C15.39,12.205,12.32,15.274,8.548,15.274z"/>
		<path style="fill:#2CB642;" d="M12.302,10.149c-0.206-0.103-1.217-0.601-1.406-0.669c-0.188-0.069-0.326-0.103-0.463,0.103
			c-0.137,0.206-0.531,0.669-0.651,0.807c-0.12,0.137-0.24,0.154-0.446,0.051c-0.206-0.103-0.869-0.32-1.654-1.021
			C7.07,8.874,6.658,8.2,6.537,7.995c-0.12-0.206-0.013-0.317,0.09-0.42c0.093-0.092,0.206-0.24,0.309-0.36
			c0.103-0.12,0.137-0.206,0.206-0.343c0.069-0.137,0.034-0.257-0.017-0.36C7.073,6.408,6.662,5.395,6.49,4.983
			C6.323,4.582,6.154,4.637,6.028,4.63C5.908,4.624,5.77,4.623,5.633,4.623c-0.137,0-0.36,0.051-0.549,0.257
			c-0.188,0.206-0.72,0.704-0.72,1.716c0,1.013,0.737,1.991,0.84,2.128c0.103,0.137,1.451,2.215,3.514,3.106
			c0.491,0.212,0.874,0.338,1.173,0.433c0.493,0.157,0.941,0.135,1.296,0.082c0.395-0.059,1.217-0.498,1.388-0.978
			c0.171-0.48,0.171-0.893,0.12-0.978C12.645,10.304,12.508,10.252,12.302,10.149z"/>
	</g>
</g>
</svg>
